<svg width="64" height="64" version="1.1" viewBox="0 0 64 64" xmlns="http://www.w3.org/2000/svg">
 <defs>
  <style>.cls-1 {
        fill: none;
        stroke: #39aecf;
        stroke-miterlimit: 10;
        stroke-width: 4px;
      }

      .cls-2 {
        fill: #41c7ec;
      }

      .cls-3 {
        isolation: isolate;
      }

      .cls-4 {
        mix-blend-mode: multiply;
      }</style>
 </defs>
 <path class="cls-2" d="m64 31.9h-26.7v-26.7c14.8 0 26.7 12 26.7 26.7z" stroke-width=".0962" style="isolation:isolate"/>
 <g fill="#39aecf" stroke-miterlimit="10" stroke-width=".0962">
  <path d="m44.1 31.9c0 3.87-3.14 7.01-7.01 7.01v0.385c4.08 0 7.39-3.31 7.39-7.39z" color="#000000" style="-inkscape-stroke:none;isolation:isolate;mix-blend-mode:multiply"/>
  <path d="m48 31.9c0 6.03-4.89 10.9-10.9 10.9v0.385c6.24 0 11.3-5.06 11.3-11.3z" color="#000000" style="-inkscape-stroke:none;isolation:isolate;mix-blend-mode:multiply"/>
  <path d="m51.9 31.9c0 8.19-6.64 14.8-14.8 14.8v0.385c8.4 0 15.2-6.81 15.2-15.2z" color="#000000" style="-inkscape-stroke:none;isolation:isolate;mix-blend-mode:multiply"/>
  <path d="m55.8 31.9c0 10.3-8.39 18.7-18.7 18.7v0.385c10.6 0 19.1-8.56 19.1-19.1z" color="#000000" style="-inkscape-stroke:none;isolation:isolate;mix-blend-mode:multiply"/>
  <path d="m59.7 31.9c0 12.5-10.1 22.6-22.6 22.6v0.385c12.7 0 23-10.3 23-23z" color="#000000" style="-inkscape-stroke:none;isolation:isolate;mix-blend-mode:multiply"/>
  <path d="m63.6 31.9c0 14.7-11.9 26.6-26.6 26.6v0.385c14.9 0 26.9-12.1 26.9-26.9z" color="#000000" style="-inkscape-stroke:none;isolation:isolate;mix-blend-mode:multiply"/>
 </g>
 <path class="cls-2" d="m10.5 5.16c-3.72 0-7.27 0.762-10.5 2.14v49.2c3.22 1.38 6.77 2.14 10.5 2.14 14.8 0 26.7-12 26.7-26.7 0-14.8-12-26.7-26.7-26.7z" stroke-width=".0962" style="isolation:isolate"/>
</svg>
